<svg width="23" height="29" viewBox="0 0 23 29" fill="none" xmlns="http://www.w3.org/2000/svg">
<g clip-path="url(#clip0_11_74)">
<path d="M5.61253 0H8.72762V1.30258H6.91512V2.60517H8.72762V3.90775H5.61253V0ZM9.34991 0H12.4662V1.13342H10.6537V1.35937H12.4662V3.96454H9.34991V2.77554H11.1624V2.54837H9.34991V0ZM13.0897 0H16.2036V1.13342H14.3911V1.35937H16.2036V3.96454H13.0897V2.77554H14.9022V2.54837H13.0897V0Z" fill="#397272"/>
<path fill-rule="evenodd" clip-rule="evenodd" d="M11.0367 29L2.64608 26.6703L0.172623 5.69971H21.9226L19.4504 26.6679L11.0367 29ZM5.06275 15.1924L5.29354 17.7637H14.2074L13.909 21.0987L11.0404 21.8745H11.038L8.17421 21.1011L7.99054 19.0506H5.40833L5.76841 23.0888L11.0367 24.5509L16.3135 23.0888L16.9564 15.8823L17.0192 15.1924L17.4832 9.98567H4.59996L4.83437 12.5582H14.6654L14.431 15.1924H5.06275Z" fill="#397272"/>
</g>
<defs>
<clipPath id="clip0_11_74">
<rect width="22.0952" height="29" fill="white"/>
</clipPath>
</defs>
</svg>
