<svg width="31" height="31" viewBox="0 0 31 31" fill="none" xmlns="http://www.w3.org/2000/svg">
<path d="M5.16668 25.8334C4.45626 25.8334 3.84832 25.5806 3.34284 25.0751C2.83737 24.5697 2.5842 23.9613 2.58334 23.25V7.75002C2.58334 7.0396 2.83651 6.43166 3.34284 5.92619C3.84918 5.42071 4.45712 5.16755 5.16668 5.16669H25.8333C26.5438 5.16669 27.1521 5.41985 27.6585 5.92619C28.1648 6.43252 28.4175 7.04046 28.4167 7.75002V23.25C28.4167 23.9604 28.1639 24.5688 27.6585 25.0751C27.153 25.5815 26.5446 25.8342 25.8333 25.8334H5.16668ZM15.5 16.7917L25.8333 10.3334V7.75002L15.5 14.2084L5.16668 7.75002V10.3334L15.5 16.7917Z" fill="#85796F"/>
</svg>
