<svg width="24" height="13" viewBox="0 0 24 13" fill="none" xmlns="http://www.w3.org/2000/svg">
<g clip-path="url(#clip0_73_2952)">
<path d="M3.5294 12.8289C2.64705 12.8289 1.8974 12.5299 1.28046 11.9319C0.663524 11.3339 0.354348 10.6066 0.352936 9.74996V9.2368C0.352936 8.79207 0.503288 8.42465 0.803994 8.13454C1.1047 7.84444 1.48376 7.6987 1.94117 7.69733C2.39858 7.69596 2.77834 7.8417 3.08046 8.13454C3.38258 8.42739 3.53223 8.79481 3.5294 9.2368V9.74996H6.70587V2.0526C6.70587 1.60787 6.85622 1.24045 7.15693 0.950343C7.45763 0.660238 7.83669 0.514501 8.2941 0.513132C8.75151 0.511764 9.13128 0.657501 9.43339 0.950343C9.73551 1.24318 9.88516 1.6106 9.88233 2.0526V9.74996C9.88233 10.6052 9.57386 11.3325 8.95692 11.9319C8.33998 12.5313 7.58963 12.8303 6.70587 12.8289H3.5294ZM15.1764 12.8289C14.5764 12.8289 14.0739 12.6319 13.6687 12.2377C13.2635 11.8436 13.0602 11.3565 13.0588 10.7763V9.74996C13.0588 9.47628 13.1647 9.2368 13.3764 9.03154C13.5882 8.82628 13.8353 8.72365 14.1176 8.72365H15.1764C15.4588 8.72365 15.7059 8.82628 15.9176 9.03154C16.1294 9.2368 16.2353 9.47628 16.2353 9.74996H20.4706V7.69733H15.1764C14.5764 7.69733 14.0739 7.50028 13.6687 7.10618C13.2635 6.71207 13.0602 6.22491 13.0588 5.6447V2.56576C13.0588 1.98418 13.2621 1.49703 13.6687 1.10429C14.0753 0.711553 14.5779 0.514501 15.1764 0.513132H21.5294C22.1294 0.513132 22.6327 0.710185 23.0393 1.10429C23.4458 1.49839 23.6484 1.98555 23.647 2.56576V3.59208C23.647 3.86576 23.5411 4.10523 23.3294 4.3105C23.1176 4.51576 22.8706 4.61839 22.5882 4.61839H21.5294C21.247 4.61839 21 4.51576 20.7882 4.3105C20.5764 4.10523 20.4706 3.86576 20.4706 3.59208H16.2353V5.6447H21.5294C22.1294 5.6447 22.6327 5.84176 23.0393 6.23586C23.4458 6.62997 23.6484 7.11712 23.647 7.69733V10.7763C23.647 11.3579 23.4437 11.8457 23.0371 12.2398C22.6306 12.6339 22.128 12.8303 21.5294 12.8289H15.1764Z" fill="#397272"/>
</g>
<defs>
<clipPath id="clip0_73_2952">
<rect width="24" height="13" fill="white"/>
</clipPath>
</defs>
</svg>
