<svg width="24" height="34" viewBox="0 0 24 34" fill="none" xmlns="http://www.w3.org/2000/svg">
<g clip-path="url(#clip0_73_2943)">
<path d="M13.616 2.61362L14.768 4.44546L15.92 2.61362V5.11158H17.5657V0.115662H15.92L14.768 1.9475L13.7806 0.115662H11.9703V5.11158H13.616V2.61362ZM22.3383 5.11158V3.44627H20.0343V0.115662H18.3886V5.11158H22.3383ZM8.18513 5.11158H9.83085V1.78097H11.312V0.115662H6.70399V1.78097H8.18513V5.11158ZM2.91885 3.44627H4.39999V5.11158H6.04571V0.115662H4.39999V1.78097H2.91885V0.115662H1.27313V5.11158H2.91885V3.44627ZM0.285706 6.77689L2.26056 30.7573L11.8057 33.4218L21.3508 30.7573L23.3257 6.77689H0.285706ZM18.8823 14.4373H7.69142L8.02056 17.4348H18.5531L17.7303 26.594L11.8057 28.2593L5.88113 26.594L5.38742 21.7646H8.3497L8.51428 24.2626L11.8057 25.0953L15.0971 24.2626L15.4263 20.4324H5.22285L4.39999 11.6063H19.2114L18.8823 14.4373Z" fill="#397272"/>
</g>
<defs>
<clipPath id="clip0_73_2943">
<rect width="24" height="34" fill="white"/>
</clipPath>
</defs>
</svg>
