<svg width="24" height="24" viewBox="0 0 24 24" fill="none" xmlns="http://www.w3.org/2000/svg">
<g clip-path="url(#clip0_73_2954)">
<mask id="mask0_73_2954" style="mask-type:luminance" maskUnits="userSpaceOnUse" x="0" y="0" width="24" height="24">
<path d="M0 0H24V24H0V0Z" fill="white"/>
</mask>
<g mask="url(#mask0_73_2954)">
<path d="M0.228015 8.37003C0.228015 8.37003 -0.355985 7.94303 0.345015 7.37503L1.98001 5.89703C1.98001 5.89703 2.44701 5.40003 2.94201 5.83303L18.023 17.375V22.909C18.023 22.909 18.016 23.779 16.913 23.683L0.228015 8.37003Z" fill="#397272"/>
<path d="M4.11601 11.937L0.22801 15.509C0.22801 15.509 -0.17199 15.809 0.22801 16.346L2.03301 18.006C2.03301 18.006 2.46201 18.471 3.09501 17.941L7.21601 14.783L4.11601 11.937ZM10.94 11.966L18.07 6.46397L18.023 0.95897C18.023 0.95897 17.718 -0.24303 16.703 0.38297L7.21601 9.10997L10.94 11.966Z" fill="#397272"/>
<path d="M16.912 23.69C17.326 24.118 17.828 23.978 17.828 23.978L23.384 21.211C24.095 20.721 23.995 20.113 23.995 20.113V3.58799C23.995 2.86199 23.26 2.61099 23.26 2.61099L18.444 0.263987C17.392 -0.393013 16.703 0.382987 16.703 0.382987C16.703 0.382987 17.589 -0.262013 18.023 0.958987V22.809C18.023 22.959 17.991 23.106 17.928 23.239C17.801 23.498 17.526 23.739 16.866 23.639L16.912 23.69Z" fill="#397272"/>
</g>
</g>
<defs>
<clipPath id="clip0_73_2954">
<rect width="24" height="24" fill="white"/>
</clipPath>
</defs>
</svg>
