<svg width="24" height="24" viewBox="0 0 24 24" fill="none" xmlns="http://www.w3.org/2000/svg">
<g clip-path="url(#clip0_73_2967)">
<path d="M5.025 0C5.14219 0 5.24531 0.0375 5.33906 0.09375L9.75937 2.62969C9.88594 2.7 9.97031 2.79375 10.0125 2.90625C10.0547 3.00938 10.0547 3.10781 10.0547 3.16875V12.2344L13.2984 10.3734V5.67188C13.2984 5.55 13.3266 5.4375 13.4016 5.33438C13.4719 5.23594 13.5656 5.16563 13.6687 5.10938L18.075 2.57813C18.15 2.53594 18.2344 2.50313 18.3328 2.50313C18.4313 2.50313 18.5203 2.53594 18.5953 2.57813L23.0859 5.16094C23.1937 5.22187 23.2687 5.30156 23.3156 5.40938C23.3578 5.50781 23.3578 5.60625 23.3578 5.68125V10.7063C23.3578 10.8 23.3484 10.9078 23.2922 11.0063C23.2359 11.1094 23.1516 11.1797 23.0531 11.2359L23.0484 11.2406L18.9234 13.6078V18.2953C18.9234 18.4031 18.9094 18.5203 18.8484 18.6234C18.7875 18.7266 18.6937 18.7969 18.6 18.8531H18.5953L9.78281 23.9063C9.67969 23.9625 9.57187 24 9.45 24C9.32812 24 9.22031 23.9578 9.11719 23.9063L9.1125 23.9016L0.332812 18.8438L0.309375 18.8297C0.257812 18.7969 0.1875 18.75 0.13125 18.6938C0.0421875 18.6047 0 18.4969 0 18.3563V3.08906C0 2.86406 0.140625 2.71875 0.257812 2.65313L4.71094 0.09375C4.80469 0.0375 4.9125 0 5.02969 0L5.025 0ZM1.78594 3.14531L5.02031 5.01563L8.26406 3.14531L5.02031 1.28437L1.78594 3.14531ZM18.3328 7.51406L21.5672 5.65312L18.3328 3.79219L15.0937 5.65312L18.3328 7.51406ZM8.86875 4.17188L5.625 6.0375V14.775L8.86875 12.9047V4.16719V4.17188ZM4.42969 6.04219L1.18125 4.17656V17.9672L8.86875 22.3828V18.6609L4.77656 16.35L4.76719 16.3453C4.70625 16.3078 4.61719 16.2563 4.55156 16.1719C4.47187 16.0734 4.43437 15.9516 4.43437 15.8109V6.0375L4.42969 6.04219ZM14.4937 10.3734L17.7422 12.2297V8.55L14.4937 6.67969V10.3734ZM18.9234 12.2297L22.1719 10.3687V6.675L18.9234 8.54531V12.225V12.2297ZM9.45 17.6297L17.1281 13.2609L13.8937 11.3906L6.23437 15.8016L9.45 17.625V17.6297ZM10.0547 22.3875L17.7422 17.9719V14.2781L10.0547 18.6656V22.3875Z" fill="#397272"/>
</g>
<defs>
<clipPath id="clip0_73_2967">
<rect width="24" height="24" fill="white"/>
</clipPath>
</defs>
</svg>
