<svg width="22" height="22" viewBox="0 0 22 22" fill="none" xmlns="http://www.w3.org/2000/svg">
<g clip-path="url(#clip0_11_83)">
<mask id="mask0_11_83" style="mask-type:luminance" maskUnits="userSpaceOnUse" x="0" y="0" width="22" height="22">
<path d="M0 0H22V22H0V0Z" fill="white"/>
</mask>
<g mask="url(#mask0_11_83)">
<path d="M0.208994 7.67248C0.208994 7.67248 -0.32634 7.28106 0.316243 6.76039L1.81499 5.40556C1.81499 5.40556 2.24308 4.94998 2.69683 5.34689L16.5211 15.9271V20.9999C16.5211 20.9999 16.5147 21.7974 15.5036 21.7094L0.208994 7.67248Z" fill="#397272"/>
<path d="M3.773 10.9422L0.208999 14.2166C0.208999 14.2166 -0.157668 14.4916 0.208999 14.9838L1.86358 16.5055C1.86358 16.5055 2.25683 16.9317 2.83708 16.4459L6.61467 13.5511L3.773 10.9422ZM10.0283 10.9688L16.5642 5.92532L16.5211 0.879071C16.5211 0.879071 16.2415 -0.222763 15.3111 0.351071L6.61467 8.35082L10.0283 10.9688Z" fill="#397272"/>
<path d="M15.5027 21.7158C15.8822 22.1081 16.3423 21.9798 16.3423 21.9798L21.4353 19.4434C22.0871 18.9942 21.9954 18.4369 21.9954 18.4369V3.28898C21.9954 2.62348 21.3217 2.3934 21.3217 2.3934L16.907 0.241983C15.9427 -0.360267 15.3111 0.351067 15.3111 0.351067C15.3111 0.351067 16.1232 -0.240183 16.5211 0.879067V20.9082C16.5211 21.0457 16.4917 21.1805 16.434 21.3024C16.3176 21.5398 16.0655 21.7607 15.4605 21.6691L15.5027 21.7158Z" fill="#397272"/>
</g>
</g>
<defs>
<clipPath id="clip0_11_83">
<rect width="22" height="22" fill="white"/>
</clipPath>
</defs>
</svg>
