<svg width="32" height="32" viewBox="0 0 32 32" fill="none" xmlns="http://www.w3.org/2000/svg">
<g clip-path="url(#clip0_11_96)">
<path d="M6.7 0C6.85625 0 6.99375 0.05 7.11875 0.125L13.0125 3.50625C13.1812 3.6 13.2938 3.725 13.35 3.875C13.4063 4.0125 13.4062 4.14375 13.4062 4.225V16.3125L17.7313 13.8313V7.5625C17.7313 7.4 17.7687 7.25 17.8687 7.1125C17.9625 6.98125 18.0875 6.8875 18.225 6.8125L24.1 3.4375C24.2 3.38125 24.3125 3.3375 24.4438 3.3375C24.575 3.3375 24.6938 3.38125 24.7938 3.4375L30.7812 6.88125C30.925 6.9625 31.025 7.06875 31.0875 7.2125C31.1437 7.34375 31.1437 7.475 31.1437 7.575V14.275C31.1437 14.4 31.1312 14.5438 31.0562 14.675C30.9812 14.8125 30.8687 14.9062 30.7375 14.9812L30.7313 14.9875L25.2313 18.1437V24.3937C25.2313 24.5375 25.2125 24.6938 25.1313 24.8312C25.05 24.9688 24.925 25.0625 24.8 25.1375H24.7938L13.0437 31.875C12.9062 31.95 12.7625 32 12.6 32C12.4375 32 12.2937 31.9438 12.1562 31.875L12.15 31.8687L0.44375 25.125L0.4125 25.1063C0.34375 25.0625 0.25 25 0.175 24.925C0.05625 24.8062 0 24.6625 0 24.475V4.11875C0 3.81875 0.1875 3.625 0.34375 3.5375L6.28125 0.125C6.40625 0.05 6.55 0 6.70625 0L6.7 0ZM2.38125 4.19375L6.69375 6.6875L11.0188 4.19375L6.69375 1.7125L2.38125 4.19375ZM24.4438 10.0188L28.7563 7.5375L24.4438 5.05625L20.125 7.5375L24.4438 10.0188ZM11.825 5.5625L7.5 8.05V19.7L11.825 17.2062V5.55625V5.5625ZM5.90625 8.05625L1.575 5.56875V23.9562L11.825 29.8438V24.8813L6.36875 21.8L6.35625 21.7938C6.275 21.7438 6.15625 21.675 6.06875 21.5625C5.9625 21.4312 5.9125 21.2687 5.9125 21.0812V8.05L5.90625 8.05625ZM19.325 13.8313L23.6562 16.3062V11.4L19.325 8.90625V13.8313ZM25.2313 16.3062L29.5625 13.825V8.9L25.2313 11.3938V16.3V16.3062ZM12.6 23.5063L22.8375 17.6812L18.525 15.1875L8.3125 21.0688L12.6 23.5V23.5063ZM13.4062 29.85L23.6562 23.9625V19.0375L13.4062 24.8875V29.85Z" fill="#397272"/>
</g>
<defs>
<clipPath id="clip0_11_96">
<rect width="32" height="32" fill="white"/>
</clipPath>
</defs>
</svg>
