<svg width="32" height="16" viewBox="0 0 32 16" fill="none" xmlns="http://www.w3.org/2000/svg">
<g clip-path="url(#clip0_11_79)">
<path d="M6.57466 5.57336H4.792L3.81866 10.5747H5.40133C6.45111 10.5747 7.23333 10.3769 7.74799 9.98136C8.26088 9.5858 8.60711 8.92536 8.78666 8.00002C8.95911 7.11202 8.88088 6.48536 8.552 6.12002C8.22311 5.75469 7.564 5.57247 6.57466 5.57336ZM9.84133 11.1107C9.34933 11.5827 8.756 11.9374 8.11066 12.1507C7.47511 12.3569 6.66622 12.4605 5.684 12.4614H3.45066L2.83333 15.6374H0.231995L2.55466 3.68802H7.56C9.06577 3.68802 10.164 4.08358 10.8547 4.87469C11.5462 5.66402 11.7542 6.76714 11.4787 8.18403C11.3735 8.74473 11.179 9.28493 10.9027 9.78403C10.6224 10.28 10.2632 10.7279 9.84133 11.1107ZM17.444 12.4614L18.4707 7.17469C18.588 6.57291 18.5449 6.16314 18.3413 5.94536C18.1396 5.7258 17.7071 5.61602 17.044 5.61602H14.9813L13.652 12.464H11.0667L13.3893 0.512024H15.972L15.3547 3.68936H17.6547C19.1036 3.68936 20.1022 3.9418 20.6507 4.44669C21.1991 4.95158 21.3649 5.76936 21.148 6.90002L20.068 12.4614H17.444ZM31.7947 8.18403C31.6907 8.74403 31.496 9.28403 31.2187 9.78403C30.9384 10.28 30.5806 10.7279 30.1587 11.1107C29.6653 11.5814 29.0733 11.9374 28.4267 12.1507C27.7911 12.3569 26.9813 12.4605 25.9973 12.4614H23.7693L23.1507 15.6387H20.5467L22.8707 3.68936H27.8733C29.3791 3.68936 30.4773 4.08491 31.168 4.87602C31.8596 5.66358 32.068 6.7658 31.7933 8.18269M26.892 5.57336H25.1107L24.136 10.5747H25.7187C26.7702 10.5747 27.5524 10.3769 28.0653 9.98136C28.5782 9.5858 28.9249 8.92536 29.1053 8.00002C29.2778 7.11202 29.1991 6.48536 28.8693 6.12002C28.5396 5.75469 27.8804 5.57247 26.892 5.57336Z" fill="#397272"/>
</g>
<defs>
<clipPath id="clip0_11_79">
<rect width="32" height="16" fill="white"/>
</clipPath>
</defs>
</svg>
