<svg width="24" height="35" viewBox="0 0 24 35" fill="none" xmlns="http://www.w3.org/2000/svg">
<g clip-path="url(#clip0_73_2969)">
<path opacity="0.6" d="M11.8771 0.299133H6.19697C4.69072 0.299133 3.24617 0.903239 2.1811 1.97856C1.11602 3.05387 0.51767 4.51231 0.51767 6.03304C0.51767 7.55376 1.11602 9.0122 2.1811 10.0875C3.24617 11.1628 4.69072 11.7669 6.19697 11.7669H11.8771V0.299133Z" fill="#397272"/>
<path opacity="0.45" d="M11.8771 11.767H6.19697C4.69095 11.767 3.24662 12.371 2.1817 13.4461C1.11679 14.5213 0.518524 15.9795 0.518524 17.5C0.518524 19.0205 1.11679 20.4787 2.1817 21.5539C3.24662 22.629 4.69095 23.2331 6.19697 23.2331H11.8771V11.767Z" fill="#397272"/>
<path d="M23.234 17.5C23.234 19.0207 22.6356 20.4792 21.5706 21.5545C20.5055 22.6298 19.0609 23.2339 17.5547 23.2339C16.0484 23.2339 14.6039 22.6298 13.5388 21.5545C12.4737 20.4792 11.8754 19.0207 11.8754 17.5C11.8754 15.9793 12.4737 14.5209 13.5388 13.4455C14.6039 12.3702 16.0484 11.7661 17.5547 11.7661C19.0609 11.7661 20.5055 12.3702 21.5706 13.4455C22.6356 14.5209 23.234 15.9793 23.234 17.5Z" fill="#397272"/>
<path opacity="0.3" d="M6.19698 23.2348H11.8771V28.9678C11.8768 30.1015 11.5435 31.2097 10.9194 32.1523C10.2953 33.0948 9.40847 33.8293 8.37094 34.263C7.33341 34.6968 6.1918 34.8101 5.09045 34.5889C3.9891 34.3676 2.97746 33.8216 2.18341 33.02C1.38937 32.2183 0.848587 31.1969 0.629428 30.085C0.41027 28.973 0.522579 27.8204 0.952156 26.7729C1.38173 25.7254 2.10929 24.83 3.04284 24.1999C3.9764 23.5699 5.07403 23.2351 6.19698 23.2348Z" fill="#397272"/>
<path opacity="0.8" d="M11.8754 0.299133H17.5538C19.0601 0.299133 20.5046 0.903239 21.5697 1.97856C22.6348 3.05387 23.2331 4.51231 23.2331 6.03304C23.2331 7.55376 22.6348 9.0122 21.5697 10.0875C20.5046 11.1628 19.0601 11.7669 17.5538 11.7669H11.8754V0.299133Z" fill="#397272"/>
</g>
<defs>
<clipPath id="clip0_73_2969">
<rect width="24" height="35" fill="white"/>
</clipPath>
</defs>
</svg>
