<svg width="32" height="32" viewBox="0 0 32 32" fill="none" xmlns="http://www.w3.org/2000/svg">
<g clip-path="url(#clip0_57_88)">
<path d="M18.4593 21.7607C17.3465 22.2217 16.122 22.3423 14.9407 22.1073C13.7593 21.8723 12.6742 21.2923 11.8225 20.4406C10.9708 19.5889 10.3908 18.5038 10.1558 17.3224C9.92079 16.1411 10.0414 14.9166 10.5023 13.8038C10.9633 12.691 11.7438 11.7398 12.7453 11.0707C13.7468 10.4015 14.9243 10.0443 16.1288 10.0443C17.3333 10.0443 18.5107 10.4015 19.5122 11.0707C20.5137 11.7398 21.2942 12.691 21.7552 13.8038C22.3705 15.2963 22.3692 16.9718 21.7514 18.4633C21.1336 19.9547 19.9498 21.1405 18.4593 21.7607ZM14.1809 11.4318C13.2508 11.817 12.4559 12.4694 11.8966 13.3065C11.3373 14.1435 11.0388 15.1276 11.0388 16.1343C11.0388 17.141 11.3373 18.1251 11.8966 18.9622C12.4559 19.7992 13.2508 20.4516 14.1809 20.8369C15.111 21.2221 16.1344 21.3229 17.1218 21.1265C18.1091 20.9301 19.0161 20.4453 19.7279 19.7335C20.4398 19.0216 20.9246 18.1147 21.121 17.1273C21.3174 16.14 21.2166 15.1165 20.8313 14.1865C20.3126 12.941 19.3215 11.9519 18.075 11.4356C16.8286 10.9193 15.4284 10.9179 14.1809 11.4318ZM12.0574 7.61162L12.6696 9.08983C12.7204 9.21235 12.8177 9.30968 12.9402 9.36043C13.0628 9.41118 13.2004 9.41118 13.3229 9.36043C13.4454 9.30968 13.5428 9.21235 13.5935 9.08983C13.6443 8.96732 13.6443 8.82966 13.5935 8.70715L12.9812 7.22894C12.9305 7.10643 12.8331 7.00909 12.7106 6.95834C12.5881 6.9076 12.4505 6.9076 12.3279 6.95834C12.2054 7.00909 12.1081 7.10643 12.0574 7.22894C12.0066 7.35146 12.0066 7.48911 12.0574 7.61162ZM20.2002 24.657L19.5879 23.1788C19.5371 23.0563 19.4398 22.9589 19.3173 22.9082C19.1948 22.8575 19.0571 22.8575 18.9346 22.9082C18.8121 22.9589 18.7147 23.0563 18.664 23.1788C18.6133 23.3013 18.6133 23.439 18.664 23.5615L19.2763 25.0397C19.327 25.1622 19.4244 25.2595 19.5469 25.3103C19.6694 25.361 19.8071 25.361 19.9296 25.3103C20.0521 25.2595 20.1494 25.1622 20.2002 25.0397C20.2509 24.9172 20.2509 24.7795 20.2002 24.657ZM24.6515 12.0629L23.1732 12.6752C23.0507 12.7259 22.9534 12.8233 22.9026 12.9458C22.8519 13.0683 22.8519 13.206 22.9026 13.3285C22.9534 13.451 23.0507 13.5483 23.1732 13.5991C23.2958 13.6498 23.4334 13.6498 23.5559 13.5991L25.0341 12.9868C25.1566 12.936 25.254 12.8387 25.3047 12.7162C25.3555 12.5937 25.3555 12.456 25.3047 12.3335C25.254 12.211 25.1566 12.1137 25.0341 12.0629C24.9116 12.0122 24.774 12.0122 24.6515 12.0629ZM7.60607 20.2057L9.08428 19.5934C9.20679 19.5427 9.30413 19.4453 9.35488 19.3228C9.40562 19.2003 9.40562 19.0627 9.35488 18.9402C9.30413 18.8176 9.20679 18.7203 9.08428 18.6696C8.96176 18.6188 8.82411 18.6188 8.7016 18.6696L7.22339 19.2818C7.10087 19.3326 7.00354 19.4299 6.95279 19.5524C6.90204 19.675 6.90204 19.8126 6.95279 19.9351C7.00354 20.0576 7.10087 20.155 7.22339 20.2057C7.3459 20.2565 7.48356 20.2565 7.60607 20.2057ZM19.2764 7.22888L18.7395 8.52499L18.6632 8.70922C18.6127 8.83156 18.6128 8.96893 18.6634 9.09122C18.6885 9.15196 18.7252 9.20718 18.7716 9.25372C18.818 9.30025 18.8731 9.33718 18.9338 9.3624C18.9945 9.38747 19.0596 9.40032 19.1253 9.40022C19.191 9.40012 19.256 9.38707 19.3167 9.36181C19.4378 9.30937 19.5344 9.21286 19.587 9.09184L20.1238 7.79573L20.2001 7.61151C20.2491 7.48844 20.2492 7.35135 20.2005 7.2282C20.1495 7.1059 20.0521 7.00884 19.9296 6.95832C19.8073 6.90743 19.6697 6.90717 19.5472 6.9576C19.4257 7.01024 19.3288 7.10727 19.2764 7.22888ZM12.9811 25.0397L13.518 23.7436L13.5943 23.5594C13.6448 23.4371 13.6447 23.2997 13.5941 23.1774C13.5691 23.1167 13.5323 23.0614 13.4859 23.0149C13.4395 22.9684 13.3844 22.9315 13.3237 22.9062C13.263 22.8812 13.1979 22.8683 13.1322 22.8684C13.0665 22.8685 13.0015 22.8816 12.9408 22.9068C12.8197 22.9593 12.7231 23.0558 12.6706 23.1768L12.1337 24.4729L12.0574 24.6571C12.0085 24.7802 12.0083 24.9173 12.057 25.0404C12.108 25.1627 12.2055 25.2598 12.3279 25.3103C12.4503 25.3612 12.5878 25.3615 12.7103 25.311C12.8318 25.2584 12.9287 25.1614 12.9811 25.0397ZM25.0342 19.282L23.7381 18.7451L23.5539 18.6688C23.4315 18.6183 23.2941 18.6184 23.1719 18.669C23.1111 18.694 23.0559 18.7308 23.0094 18.7772C22.9628 18.8236 22.9259 18.8787 22.9007 18.9393C22.8756 19.0001 22.8628 19.0651 22.8629 19.1309C22.863 19.1966 22.876 19.2616 22.9013 19.3223C22.9537 19.4433 23.0502 19.5399 23.1712 19.5925L24.4673 20.1294L24.6516 20.2057C24.7746 20.2546 24.9117 20.2547 25.0349 20.206C25.1572 20.1551 25.2542 20.0576 25.3048 19.9351C25.3556 19.8128 25.3559 19.6753 25.3055 19.5528C25.2528 19.4312 25.1558 19.3344 25.0342 19.282ZM7.22333 12.9867L8.51944 13.5235L8.70366 13.5999C8.826 13.6503 8.96337 13.6503 9.08566 13.5997C9.14641 13.5746 9.20163 13.5379 9.24816 13.4915C9.29469 13.4451 9.33162 13.39 9.35684 13.3293C9.38191 13.2686 9.39476 13.2035 9.39466 13.1378C9.39456 13.0721 9.38151 13.007 9.35626 12.9464C9.30382 12.8253 9.20731 12.7287 9.08629 12.6761L7.79018 12.1392L7.60595 12.0629C7.48289 12.014 7.3458 12.0139 7.22264 12.0626C7.10035 12.1136 7.00328 12.211 6.95277 12.3335C6.90187 12.4558 6.90161 12.5934 6.95205 12.7159C7.00469 12.8374 7.10172 12.9342 7.22333 12.9867Z" fill="#5BB6B6"/>
</g>
<path d="M16 22.0899C14.7955 22.0899 13.6181 21.7328 12.6166 21.0636C11.6151 20.3944 10.8345 19.4433 10.3736 18.3305C9.91263 17.2177 9.79203 15.9932 10.027 14.8118C10.262 13.6305 10.842 12.5454 11.6937 11.6937C12.5454 10.842 13.6305 10.2619 14.8119 10.0269C15.9932 9.79197 17.2177 9.91257 18.3305 10.3735C19.4433 10.8344 20.3945 11.615 21.0636 12.6165C21.7328 13.618 22.09 14.7954 22.09 15.9999C22.0873 17.6143 21.4449 19.1618 20.3034 20.3033C19.1618 21.4448 17.6143 22.0873 16 22.0899ZM16 10.9099C14.9933 10.9099 14.0092 11.2085 13.1721 11.7678C12.3351 12.327 11.6827 13.122 11.2974 14.0521C10.9122 14.9821 10.8114 16.0056 11.0078 16.9929C11.2042 17.9803 11.689 18.8873 12.4008 19.5991C13.1127 20.311 14.0196 20.7957 15.007 20.9921C15.9943 21.1885 17.0178 21.0877 17.9479 20.7025C18.8779 20.3172 19.6729 19.6648 20.2322 18.8278C20.7915 17.9907 21.09 17.0066 21.09 15.9999C21.0874 14.6508 20.5502 13.3577 19.5962 12.4037C18.6423 11.4497 17.3491 10.9126 16 10.9099ZM15.5 6.56793V8.16793C15.5 8.30054 15.5527 8.42772 15.6464 8.52149C15.7402 8.61525 15.8674 8.66793 16 8.66793C16.1326 8.66793 16.2598 8.61525 16.3535 8.52149C16.4473 8.42772 16.5 8.30054 16.5 8.16793V6.56793C16.5 6.43532 16.4473 6.30815 16.3535 6.21438C16.2598 6.12061 16.1326 6.06793 16 6.06793C15.8674 6.06793 15.7402 6.12061 15.6464 6.21438C15.5527 6.30815 15.5 6.43532 15.5 6.56793ZM16.5 25.4319V23.8319C16.5 23.6993 16.4473 23.5721 16.3535 23.4784C16.2598 23.3846 16.1326 23.3319 16 23.3319C15.8674 23.3319 15.7402 23.3846 15.6464 23.4784C15.5527 23.5721 15.5 23.6993 15.5 23.8319V25.4319C15.5 25.5645 15.5527 25.6917 15.6464 25.7855C15.7402 25.8793 15.8674 25.9319 16 25.9319C16.1326 25.9319 16.2598 25.8793 16.3535 25.7855C16.4473 25.6917 16.5 25.5645 16.5 25.4319ZM25.432 15.4999H23.832C23.6994 15.4999 23.5722 15.5526 23.4784 15.6464C23.3847 15.7401 23.332 15.8673 23.332 15.9999C23.332 16.1325 23.3847 16.2597 23.4784 16.3535C23.5722 16.4473 23.6994 16.4999 23.832 16.4999H25.432C25.5646 16.4999 25.6918 16.4473 25.7855 16.3535C25.8793 16.2597 25.932 16.1325 25.932 15.9999C25.932 15.8673 25.8793 15.7401 25.7855 15.6464C25.6918 15.5526 25.5646 15.4999 25.432 15.4999ZM6.56799 16.4999H8.16799C8.3006 16.4999 8.42778 16.4473 8.52155 16.3535C8.61531 16.2597 8.66799 16.1325 8.66799 15.9999C8.66799 15.8673 8.61531 15.7401 8.52155 15.6464C8.42778 15.5526 8.3006 15.4999 8.16799 15.4999H6.56799C6.43538 15.4999 6.30821 15.5526 6.21444 15.6464C6.12067 15.7401 6.06799 15.8673 6.06799 15.9999C6.06799 16.1325 6.12067 16.2597 6.21444 16.3535C6.30821 16.4473 6.43538 16.4999 6.56799 16.4999ZM22.316 8.97693L21.324 9.96893L21.183 10.1099C21.0895 10.2036 21.037 10.3306 21.037 10.4629C21.0369 10.5286 21.0497 10.5937 21.0748 10.6545C21.0998 10.7152 21.1366 10.7704 21.183 10.8169C21.2295 10.8633 21.2847 10.9001 21.3455 10.9252C21.4062 10.9502 21.4713 10.963 21.537 10.9629C21.6689 10.9608 21.7951 10.9086 21.89 10.8169L22.882 9.82493L23.023 9.68393C23.1153 9.58896 23.1679 9.46235 23.17 9.32993C23.1697 9.19744 23.1168 9.07047 23.023 8.97693C22.9295 8.8831 22.8025 8.83023 22.67 8.82993C22.5376 8.83207 22.411 8.88464 22.316 8.97693ZM9.68399 23.0229L10.676 22.0309L10.817 21.8899C10.9105 21.7962 10.963 21.6693 10.963 21.5369C10.9631 21.4712 10.9503 21.4061 10.9252 21.3454C10.9002 21.2847 10.8634 21.2295 10.817 21.1829C10.7705 21.1365 10.7153 21.0998 10.6545 21.0747C10.5938 21.0496 10.5287 21.0368 10.463 21.0369C10.3311 21.0391 10.2049 21.0912 10.11 21.1829L9.11799 22.1749L8.97699 22.3159C8.8847 22.4109 8.83213 22.5375 8.82999 22.6699C8.83029 22.8024 8.88316 22.9294 8.97699 23.0229C9.07054 23.1168 9.1975 23.1696 9.32999 23.1699C9.46241 23.1678 9.58902 23.1152 9.68399 23.0229ZM23.023 22.3159L22.031 21.3239L21.89 21.1829C21.7963 21.0895 21.6693 21.037 21.537 21.0369C21.4713 21.0368 21.4062 21.0496 21.3455 21.0747C21.2847 21.0998 21.2295 21.1365 21.183 21.1829C21.1366 21.2295 21.0998 21.2847 21.0748 21.3454C21.0497 21.4061 21.0369 21.4712 21.037 21.5369C21.0391 21.6689 21.0913 21.795 21.183 21.8899L22.175 22.8819L22.316 23.0229C22.411 23.1152 22.5376 23.1678 22.67 23.1699C22.8025 23.1696 22.9295 23.1168 23.023 23.0229C23.1168 22.9294 23.1697 22.8024 23.17 22.6699C23.1679 22.5375 23.1153 22.4109 23.023 22.3159ZM8.97699 9.68393L9.96899 10.6759L10.11 10.8169C10.2037 10.9104 10.3306 10.9629 10.463 10.9629C10.5287 10.963 10.5938 10.9502 10.6545 10.9252C10.7153 10.9001 10.7705 10.8633 10.817 10.8169C10.8634 10.7704 10.9002 10.7152 10.9252 10.6545C10.9503 10.5937 10.9631 10.5286 10.963 10.4629C10.9609 10.331 10.9087 10.2048 10.817 10.1099L9.82499 9.11793L9.68399 8.97693C9.58902 8.88464 9.46241 8.83207 9.32999 8.82993C9.1975 8.83023 9.07054 8.8831 8.97699 8.97693C8.88316 9.07047 8.83029 9.19744 8.82999 9.32993C8.83213 9.46235 8.8847 9.58896 8.97699 9.68393Z" fill="#0A1414"/>
<path d="M16.8365 20.948C15.5306 21.1783 14.1866 20.8803 13.1004 20.1197C12.0141 19.3591 11.2745 18.1981 11.0442 16.8922C10.8139 15.5863 11.1119 14.2423 11.8725 13.1561C12.6331 12.0698 13.7941 11.3302 15.1 11.0999C15.1 11.0999 14.6942 14.1105 15 15.9999C15.3293 18.0346 16.8365 20.948 16.8365 20.948Z" fill="#FAFFFF"/>
<path d="M16.8683 20.924C18.1742 20.6937 19.3352 19.9541 20.0958 18.8678C20.8564 17.7816 21.1543 16.4376 20.9241 15.1317C20.6938 13.8258 19.9542 12.6648 18.8679 11.9042C17.7816 11.1436 16.4377 10.8456 15.1318 11.0759L16 16L16.8683 20.924Z" fill="#0A1414"/>
<defs>
<clipPath id="clip0_57_88">
<rect width="24" height="24" fill="white" transform="translate(0.450012 9.63995) rotate(-22.5)"/>
</clipPath>
</defs>
</svg>
