<svg width="24" height="16" viewBox="0 0 24 16" fill="none" xmlns="http://www.w3.org/2000/svg">
<g clip-path="url(#clip0_73_2965)">
<path fill-rule="evenodd" clip-rule="evenodd" d="M6.94202 11.1857C6.99869 11.1857 7.05135 11.1957 7.10002 11.2157C7.07582 11.2294 7.05513 11.2485 7.0396 11.2715C7.02407 11.2946 7.01411 11.3209 7.01052 11.3485C7.00693 11.376 7.0098 11.404 7.01892 11.4303C7.02803 11.4565 7.04313 11.4803 7.06302 11.4997C7.08291 11.5191 7.10705 11.5336 7.13351 11.5421C7.15998 11.5505 7.18806 11.5527 7.21552 11.5485C7.24298 11.5442 7.26907 11.5336 7.29172 11.5175C7.31437 11.5014 7.33296 11.4802 7.34602 11.4557C7.38208 11.5425 7.38924 11.6386 7.36647 11.7298C7.34369 11.821 7.29217 11.9025 7.21953 11.9622C7.14689 12.0218 7.05697 12.0565 6.96308 12.0612C6.86919 12.0658 6.7763 12.0401 6.69814 11.9879C6.61999 11.9356 6.56071 11.8596 6.52907 11.7711C6.49743 11.6826 6.49511 11.5862 6.52246 11.4963C6.5498 11.4064 6.60536 11.3276 6.68091 11.2717C6.75647 11.2157 6.84801 11.1856 6.94202 11.1857ZM6.94202 12.3707C6.84142 12.3742 6.74114 12.3575 6.64717 12.3214C6.5532 12.2853 6.46746 12.2306 6.39509 12.1607C6.32272 12.0907 6.26519 12.0069 6.22594 11.9142C6.1867 11.8215 6.16654 11.7218 6.16668 11.6212C6.16681 11.5205 6.18723 11.4209 6.22673 11.3283C6.26622 11.2357 6.32397 11.152 6.39653 11.0823C6.46909 11.0125 6.55497 10.9581 6.64904 10.9222C6.7431 10.8864 6.84343 10.8699 6.94402 10.8737C7.13779 10.881 7.32117 10.9632 7.45557 11.103C7.58998 11.2428 7.66493 11.4293 7.66467 11.6232C7.66441 11.8171 7.58896 12.0033 7.45418 12.1428C7.31941 12.2822 7.13581 12.3639 6.94202 12.3707ZM20.386 7.46971C18.262 13.0977 13.466 15.6047 7.81002 15.6047C5.13802 15.6047 3.00702 14.6847 1.64302 13.1527L1.65302 13.1467C2.04602 13.1667 2.39802 13.1727 2.75402 13.1727C3.08102 13.1727 3.40002 13.1697 3.69502 13.1527L3.77902 13.1467C3.77902 13.1467 3.87002 13.1407 3.82502 13.1397C4.46008 13.1074 5.08959 13.0048 5.70202 12.8337C5.80135 12.8057 5.89669 12.7757 5.98802 12.7437C6.03296 12.7236 6.06875 12.6874 6.08833 12.6422C6.1079 12.597 6.10986 12.5462 6.0938 12.4996C6.07774 12.4531 6.04484 12.4142 6.00157 12.3908C5.9583 12.3673 5.9078 12.3608 5.86002 12.3727C5.17002 12.6117 4.26002 12.7427 3.14502 12.7677C2.52467 12.7789 1.90411 12.7639 1.28503 12.7227C1.14523 12.537 1.01635 12.3434 0.899026 12.1427L0.712026 11.8027C0.150027 10.6967 -0.0959732 9.40571 0.0340266 8.00171H16.397C17.741 8.00171 19.053 7.49971 19.677 6.94671C18.56 6.03871 18.671 3.88271 19.382 3.06071C20 3.55671 20.995 4.60071 20.824 5.93171C21.601 5.54171 22.951 5.34871 24 5.95371C23.341 7.23971 21.893 7.62371 20.386 7.46971ZM2.25602 7.60471H4.46802V5.39171H2.25502L2.25602 7.60471ZM4.80802 7.60471H7.02102V5.39171H4.80802V7.60471ZM4.80802 5.05171H7.02102V2.83871H4.80802V5.05171ZM7.36102 7.60471H9.57402V5.39171H7.36102V7.60471ZM7.36102 5.05171H9.57402V2.83871H7.36102V5.05171ZM9.91402 7.60471H12.127V5.39171H9.91402V7.60471ZM9.91402 5.05171H12.127V2.83871H9.91402V5.05171ZM9.91402 2.49871H12.127V0.285706H9.91402V2.49871ZM12.467 7.60471H14.68V5.39171H12.467V7.60471Z" fill="#397272"/>
</g>
<defs>
<clipPath id="clip0_73_2965">
<rect width="24" height="16" fill="white"/>
</clipPath>
</defs>
</svg>
