<svg width="23" height="31" viewBox="0 0 23 31" fill="none" xmlns="http://www.w3.org/2000/svg">
<path d="M12.5624 2.38302L13.6252 4.05322L14.6881 2.38302V4.66057H16.2065V0.105469H14.6881L13.6252 1.77567L12.7142 0.105469H11.044V4.66057H12.5624V2.38302ZM20.6097 4.66057V3.1422H18.484V0.105469H16.9657V4.66057H20.6097ZM7.55177 4.66057H9.07014V1.62384H10.4367V0.105469H6.18524V1.62384H7.55177V4.66057ZM2.693 3.1422H4.05953V4.66057H5.5779V0.105469H4.05953V1.62384H2.693V0.105469H1.17463V4.66057H2.693V3.1422ZM0.263611 6.17894L2.08565 28.0434L10.8922 30.4728L19.6987 28.0434L21.5208 6.17894H0.263611ZM17.4212 13.1634H7.09626L7.39994 15.8965H17.1175L16.3583 24.2475L10.8922 25.7659L5.42606 24.2475L4.97055 19.8442H7.70361L7.85545 22.1218L10.8922 22.881L13.9289 22.1218L14.2326 18.6295H4.81871L4.05953 10.5822H17.7248L17.4212 13.1634Z" fill="#397272"/>
</svg>
