<svg width="24" height="12" viewBox="0 0 24 12" fill="none" xmlns="http://www.w3.org/2000/svg">
<g clip-path="url(#clip0_73_2950)">
<path d="M4.93101 4.17997H3.59401L2.86401 7.93097H4.05101C4.83834 7.93097 5.42501 7.78264 5.81101 7.48597C6.19568 7.18931 6.45534 6.69397 6.59001 5.99997C6.71934 5.33397 6.66068 4.86397 6.41401 4.58997C6.16734 4.31597 5.67301 4.17931 4.93101 4.17997ZM7.38101 8.33297C7.01201 8.68697 6.56701 8.95297 6.08301 9.11297C5.60634 9.26764 4.99968 9.34531 4.26301 9.34597H2.58801L2.12501 11.728H0.174011L1.91601 2.76597H5.67001C6.79934 2.76597 7.62301 3.06264 8.14101 3.65597C8.65968 4.24797 8.81568 5.07531 8.60901 6.13797C8.53012 6.5585 8.38426 6.96365 8.17701 7.33797C7.96685 7.70997 7.69745 8.04589 7.38101 8.33297ZM13.083 9.34597L13.853 5.38097C13.941 4.92964 13.9087 4.62231 13.756 4.45897C13.6047 4.29431 13.2803 4.21197 12.783 4.21197H11.236L10.239 9.34797H8.30001L10.042 0.383972H11.979L11.516 2.76697H13.241C14.3277 2.76697 15.0767 2.95631 15.488 3.33497C15.8993 3.71364 16.0237 4.32697 15.861 5.17497L15.051 9.34597H13.083ZM23.846 6.13797C23.768 6.55797 23.622 6.96297 23.414 7.33797C23.2039 7.70997 22.9355 8.04589 22.619 8.33297C22.249 8.68597 21.805 8.95297 21.32 9.11297C20.8433 9.26764 20.236 9.34531 19.498 9.34597H17.827L17.363 11.729H15.41L17.153 2.76697H20.905C22.0343 2.76697 22.858 3.06364 23.376 3.65697C23.8947 4.24764 24.051 5.07431 23.845 6.13697M20.169 4.17997H18.833L18.102 7.93097H19.289C20.0777 7.93097 20.6643 7.78264 21.049 7.48597C21.4337 7.18931 21.6937 6.69397 21.829 5.99997C21.9583 5.33397 21.8993 4.86397 21.652 4.58997C21.4047 4.31597 20.9103 4.17931 20.169 4.17997Z" fill="#397272"/>
</g>
<defs>
<clipPath id="clip0_73_2950">
<rect width="24" height="12" fill="white"/>
</clipPath>
</defs>
</svg>
