<svg width="24" height="32" viewBox="0 0 24 32" fill="none" xmlns="http://www.w3.org/2000/svg">
<g clip-path="url(#clip0_73_2945)">
<path d="M6.09637 0H9.48V1.43733H7.51125V2.87467H9.48V4.312H6.09637V0ZM10.1559 0H13.5409V1.25067H11.5721V1.5H13.5409V4.37467H10.1559V3.06267H12.1247V2.812H10.1559V0ZM14.2181 0H17.6004V1.25067H15.6317V1.5H17.6004V4.37467H14.2181V3.06267H16.1869V2.812H14.2181V0Z" fill="#397272"/>
<path fill-rule="evenodd" clip-rule="evenodd" d="M11.9882 32L2.87419 29.4293L0.1875 6.28931H23.8125L21.1271 29.4266L11.9882 32ZM5.49919 16.764L5.74987 19.6013H15.4322L15.108 23.2813L11.9921 24.1373H11.9895L8.87887 23.284L8.67938 21.0213H5.87456L6.26569 25.4773L11.9882 27.0906L17.7199 25.4773L18.4181 17.5253L18.4864 16.764L18.9904 11.0186H4.9965L5.25112 13.8573H15.9296L15.675 16.764H5.49919Z" fill="#397272"/>
</g>
<defs>
<clipPath id="clip0_73_2945">
<rect width="24" height="32" fill="white"/>
</clipPath>
</defs>
</svg>
