<svg width="24" height="24" viewBox="0 0 24 24" fill="none" xmlns="http://www.w3.org/2000/svg">
<g clip-path="url(#clip0_73_2963)">
<path d="M12 0.5C10.4406 0.5 8.89637 0.807156 7.45563 1.40393C6.01489 2.00071 4.7058 2.87541 3.60311 3.97811C1.37611 6.2051 0.125 9.22555 0.125 12.375C0.125 17.6238 3.53312 22.0769 8.2475 23.6562C8.84125 23.7512 9.03125 23.3831 9.03125 23.0625V21.0556C5.74187 21.7681 5.04125 19.4644 5.04125 19.4644C4.495 18.0869 3.72312 17.7188 3.72312 17.7188C2.6425 16.9825 3.80625 17.0062 3.80625 17.0062C4.99375 17.0894 5.62312 18.2294 5.62312 18.2294C6.65625 20.0344 8.40187 19.5 9.07875 19.215C9.18562 18.4431 9.49437 17.9206 9.82687 17.6238C7.19062 17.3269 4.42375 16.3056 4.42375 11.7812C4.42375 10.4631 4.875 9.40625 5.64687 8.56312C5.52812 8.26625 5.1125 7.03125 5.76562 5.42813C5.76562 5.42813 6.76312 5.1075 9.03125 6.63938C9.96937 6.37813 10.9906 6.2475 12 6.2475C13.0094 6.2475 14.0306 6.37813 14.9687 6.63938C17.2369 5.1075 18.2344 5.42813 18.2344 5.42813C18.8875 7.03125 18.4719 8.26625 18.3531 8.56312C19.125 9.40625 19.5762 10.4631 19.5762 11.7812C19.5762 16.3175 16.7975 17.315 14.1494 17.6119C14.5769 17.98 14.9687 18.7044 14.9687 19.8088V23.0625C14.9687 23.3831 15.1587 23.7631 15.7644 23.6562C20.4787 22.065 23.875 17.6238 23.875 12.375C23.875 10.8156 23.5678 9.27138 22.9711 7.83063C22.3743 6.38989 21.4996 5.0808 20.3969 3.97811C19.2942 2.87541 17.9851 2.00071 16.5444 1.40393C15.1036 0.807156 13.5594 0.5 12 0.5Z" fill="#397272"/>
</g>
<defs>
<clipPath id="clip0_73_2963">
<rect width="24" height="24" fill="white"/>
</clipPath>
</defs>
</svg>
