<svg width="24" height="24" viewBox="0 0 24 24" fill="none" xmlns="http://www.w3.org/2000/svg">
<path d="M12 18.09C10.7955 18.09 9.61807 17.7328 8.61657 17.0636C7.61508 16.3945 6.8345 15.4433 6.37357 14.3305C5.91263 13.2177 5.79203 11.9932 6.02701 10.8119C6.26199 9.63055 6.84201 8.54541 7.69371 7.69371C8.54541 6.84201 9.63055 6.26199 10.8119 6.02701C11.9932 5.79203 13.2177 5.91263 14.3305 6.37357C15.4433 6.8345 16.3945 7.61508 17.0636 8.61657C17.7328 9.61807 18.09 10.7955 18.09 12C18.0873 13.6143 17.4449 15.1618 16.3034 16.3034C15.1618 17.4449 13.6143 18.0873 12 18.09ZM12 6.90999C10.9933 6.90999 10.0092 7.20852 9.17214 7.76781C8.33509 8.32711 7.6827 9.12206 7.29745 10.0521C6.9122 10.9822 6.8114 12.0056 7.0078 12.993C7.2042 13.9804 7.68897 14.8873 8.40082 15.5992C9.11267 16.311 10.0196 16.7958 11.007 16.9922C11.9943 17.1886 13.0178 17.0878 13.9479 16.7025C14.8779 16.3173 15.6729 15.6649 16.2322 14.8278C16.7915 13.9908 17.09 13.0067 17.09 12C17.0874 10.6509 16.5502 9.35773 15.5962 8.40374C14.6423 7.44975 13.3491 6.91264 12 6.90999ZM11.5 2.56799V4.16799C11.5 4.3006 11.5527 4.42778 11.6464 4.52155C11.7402 4.61531 11.8674 4.66799 12 4.66799C12.1326 4.66799 12.2598 4.61531 12.3535 4.52155C12.4473 4.42778 12.5 4.3006 12.5 4.16799V2.56799C12.5 2.43538 12.4473 2.30821 12.3535 2.21444C12.2598 2.12067 12.1326 2.06799 12 2.06799C11.8674 2.06799 11.7402 2.12067 11.6464 2.21444C11.5527 2.30821 11.5 2.43538 11.5 2.56799ZM12.5 21.432V19.832C12.5 19.6994 12.4473 19.5722 12.3535 19.4784C12.2598 19.3847 12.1326 19.332 12 19.332C11.8674 19.332 11.7402 19.3847 11.6464 19.4784C11.5527 19.5722 11.5 19.6994 11.5 19.832V21.432C11.5 21.5646 11.5527 21.6918 11.6464 21.7855C11.7402 21.8793 11.8674 21.932 12 21.932C12.1326 21.932 12.2598 21.8793 12.3535 21.7855C12.4473 21.6918 12.5 21.5646 12.5 21.432ZM21.432 11.5H19.832C19.6994 11.5 19.5722 11.5527 19.4784 11.6464C19.3847 11.7402 19.332 11.8674 19.332 12C19.332 12.1326 19.3847 12.2598 19.4784 12.3535C19.5722 12.4473 19.6994 12.5 19.832 12.5H21.432C21.5646 12.5 21.6918 12.4473 21.7855 12.3535C21.8793 12.2598 21.932 12.1326 21.932 12C21.932 11.8674 21.8793 11.7402 21.7855 11.6464C21.6918 11.5527 21.5646 11.5 21.432 11.5ZM2.56799 12.5H4.16799C4.3006 12.5 4.42778 12.4473 4.52155 12.3535C4.61531 12.2598 4.66799 12.1326 4.66799 12C4.66799 11.8674 4.61531 11.7402 4.52155 11.6464C4.42778 11.5527 4.3006 11.5 4.16799 11.5H2.56799C2.43538 11.5 2.30821 11.5527 2.21444 11.6464C2.12067 11.7402 2.06799 11.8674 2.06799 12C2.06799 12.1326 2.12067 12.2598 2.21444 12.3535C2.30821 12.4473 2.43538 12.5 2.56799 12.5ZM18.316 4.97699L17.324 5.96899L17.183 6.10999C17.0895 6.2037 17.037 6.33064 17.037 6.46299C17.0369 6.5287 17.0497 6.59378 17.0748 6.65452C17.0998 6.71527 17.1366 6.77047 17.183 6.81699C17.2295 6.86339 17.2847 6.90017 17.3455 6.92522C17.4062 6.95028 17.4713 6.96311 17.537 6.96299C17.6689 6.96087 17.7951 6.90868 17.89 6.81699L18.882 5.82499L19.023 5.68399C19.1153 5.58902 19.1679 5.46241 19.17 5.32999C19.1697 5.1975 19.1168 5.07054 19.023 4.97699C18.9295 4.88316 18.8025 4.83029 18.67 4.82999C18.5376 4.83213 18.411 4.8847 18.316 4.97699ZM5.68399 19.023L6.67599 18.031L6.81699 17.89C6.91046 17.7963 6.96296 17.6693 6.96299 17.537C6.96311 17.4713 6.95028 17.4062 6.92522 17.3455C6.90017 17.2847 6.86339 17.2295 6.81699 17.183C6.77047 17.1366 6.71527 17.0998 6.65452 17.0748C6.59378 17.0497 6.5287 17.0369 6.46299 17.037C6.33106 17.0391 6.20488 17.0913 6.10999 17.183L5.11799 18.175L4.97699 18.316C4.8847 18.411 4.83213 18.5376 4.82999 18.67C4.83029 18.8025 4.88316 18.9295 4.97699 19.023C5.07054 19.1168 5.1975 19.1697 5.32999 19.17C5.46241 19.1679 5.58902 19.1153 5.68399 19.023ZM19.023 18.316L18.031 17.324L17.89 17.183C17.7963 17.0895 17.6693 17.037 17.537 17.037C17.4713 17.0369 17.4062 17.0497 17.3455 17.0748C17.2847 17.0998 17.2295 17.1366 17.183 17.183C17.1366 17.2295 17.0998 17.2847 17.0748 17.3455C17.0497 17.4062 17.0369 17.4713 17.037 17.537C17.0391 17.6689 17.0913 17.7951 17.183 17.89L18.175 18.882L18.316 19.023C18.411 19.1153 18.5376 19.1679 18.67 19.17C18.8025 19.1697 18.9295 19.1168 19.023 19.023C19.1168 18.9295 19.1697 18.8025 19.17 18.67C19.1679 18.5376 19.1153 18.411 19.023 18.316ZM4.97699 5.68399L5.96899 6.67599L6.10999 6.81699C6.2037 6.91046 6.33064 6.96296 6.46299 6.96299C6.5287 6.96311 6.59378 6.95028 6.65452 6.92522C6.71527 6.90017 6.77047 6.86339 6.81699 6.81699C6.86339 6.77047 6.90017 6.71527 6.92522 6.65452C6.95028 6.59378 6.96311 6.5287 6.96299 6.46299C6.96087 6.33106 6.90868 6.20488 6.81699 6.10999L5.82499 5.11799L5.68399 4.97699C5.58902 4.8847 5.46241 4.83213 5.32999 4.82999C5.1975 4.83029 5.07054 4.88316 4.97699 4.97699C4.88316 5.07054 4.83029 5.1975 4.82999 5.32999C4.83213 5.46241 4.8847 5.58902 4.97699 5.68399Z" fill="#0A1414"/>
<path d="M12.8365 16.9481C11.5306 17.1783 10.1866 16.8804 9.10036 16.1198C8.0141 15.3592 7.27448 14.1982 7.04421 12.8923C6.81394 11.5863 7.11188 10.2424 7.87249 9.15613C8.6331 8.06987 9.79407 7.33025 11.1 7.09998C11.1 7.09998 11.1351 10.1783 11.4758 12.1108C11.8166 14.0434 12.8365 16.9481 12.8365 16.9481Z" fill="#FCFAF7"/>
<path d="M12.8683 16.9241C14.1742 16.6938 15.3352 15.9542 16.0958 14.8679C16.8564 13.7816 17.1543 12.4377 16.9241 11.1318C16.6938 9.82583 15.9542 8.66486 14.8679 7.90425C13.7816 7.14364 12.4377 6.8457 11.1318 7.07597L12 12L12.8683 16.9241Z" fill="#0A1414"/>
</svg>
