<svg width="32" height="24" viewBox="0 0 32 24" fill="none" xmlns="http://www.w3.org/2000/svg">
<g clip-path="url(#clip0_11_77)">
<path d="M27.533 13.796L27.665 13.794C28.499 13.794 29.288 13.988 29.988 14.334L29.957 14.32C30.58 14.6205 31.1118 15.0812 31.498 15.655L31.507 15.669C31.8433 16.1627 32.0096 16.7524 31.981 17.349V17.343C31.9671 17.6187 31.8982 17.8888 31.7783 18.1375C31.6584 18.3862 31.49 18.6084 31.283 18.791L31.281 18.793C31.0575 19.0119 30.7899 19.1807 30.496 19.288L30.481 19.293C30.3143 19.3263 30.2227 19.3013 30.206 19.218C30.1893 19.1347 30.2643 19.043 30.431 18.943C30.883 18.669 31.21 18.227 31.329 17.706L31.332 17.693C31.3588 17.3457 31.2896 16.9977 31.132 16.687L31.137 16.698C30.927 16.2559 30.6024 15.8782 30.197 15.604L30.187 15.598C29.5604 15.198 28.8451 14.9579 28.104 14.899L28.088 14.898C27.0267 14.746 25.9442 14.8717 24.946 15.263L24.988 15.248C25.133 15.587 25.224 15.98 25.237 16.392V16.397C25.2295 16.7983 25.1205 17.1913 24.9203 17.5392C24.7201 17.8871 24.4352 18.1788 24.092 18.387L24.081 18.393C23.771 18.613 23.417 18.806 23.04 18.956L23.005 18.968C22.7314 19.0992 22.429 19.159 22.126 19.142H22.131C21.4983 19.0093 21.3483 18.4593 21.681 17.492C21.826 17.071 22.029 16.706 22.286 16.385L22.28 16.392C22.609 15.962 22.97 15.585 23.369 15.251L23.38 15.242L23.282 15.096C23.0879 14.7604 22.9252 14.4075 22.796 14.042L22.782 13.996C22.682 13.6627 22.5987 13.3463 22.532 13.047L22.482 12.697L21.982 13.646C21.5487 14.446 21.132 15.1457 20.732 15.745L20.582 15.995C20.75 16.403 20.874 16.876 20.93 17.37L20.932 17.395C20.9597 17.7806 20.8876 18.1668 20.7226 18.5164C20.5576 18.8661 20.3053 19.1673 19.99 19.391L19.983 19.396C19.6798 19.5811 19.3659 19.748 19.043 19.896L18.983 19.921C18.6052 20.0818 18.2021 20.1749 17.792 20.196H17.783C17.5042 20.2163 17.2249 20.1632 16.973 20.042L16.983 20.046C16.8842 19.9616 16.8161 19.8469 16.7891 19.7198C16.7622 19.5927 16.778 19.4602 16.834 19.343L16.832 19.347C17.232 18.786 17.626 18.298 18.045 17.832L18.032 17.847L19.132 16.448L18.933 15.998C18.7603 15.677 18.6144 15.3421 18.497 14.997L18.483 14.949C18.383 14.6157 18.2997 14.2993 18.233 14L18.183 13.65L17.683 14.85C17.2837 15.7827 16.917 16.5823 16.583 17.249C16.085 18.249 15.6683 19.0157 15.333 19.549L15.233 19.699C14.8337 20.3317 14.4503 20.648 14.083 20.648C13.7157 20.648 13.4667 20.4147 13.336 19.948C13.2339 19.5743 13.1828 19.1884 13.184 18.801L13.185 18.693V18.698L13.285 17.998V18.048C13.0183 18.6807 12.7517 19.2637 12.485 19.797C12.3227 20.1182 12.1344 20.4255 11.922 20.716L11.935 20.697C11.729 20.913 11.439 21.047 11.118 21.047H11.11C11.0887 21.0483 11.0657 21.049 11.041 21.049C10.7982 21.049 10.5641 20.9588 10.384 20.796L10.385 20.797C10.0312 20.4322 9.77589 19.9835 9.643 19.493L9.638 19.472C9.4427 18.914 9.3568 18.3235 9.385 17.733V17.743C9.464 16.947 9.623 16.218 9.856 15.523L9.835 15.594L8.036 16.644V16.694C8.36329 17.3838 8.50101 18.1483 8.435 18.909L8.436 18.893C8.38649 19.8817 8.07106 20.8387 7.523 21.663L7.536 21.643C6.98648 22.5209 6.17792 23.2064 5.222 23.605L5.189 23.617C4.61401 23.8704 3.99233 24.0005 3.364 23.999C2.946 23.999 2.54 23.943 2.156 23.837L2.188 23.844C1.87792 23.7406 1.61462 23.5304 1.445 23.251L1.442 23.245C1.19877 22.8917 1.05918 22.4774 1.039 22.049V22.043C0.976491 21.4361 1.08345 20.8238 1.348 20.274L1.339 20.294C1.89875 19.3318 2.69622 18.5295 3.655 17.964L3.685 17.948C4.4003 17.4562 5.1514 17.0187 5.932 16.639L6.038 16.592L6.288 16.442C5.988 16.2087 5.438 15.8087 4.638 15.242C3.62939 14.5696 2.66905 13.8274 1.764 13.021L1.789 13.043C0.931398 12.3086 0.323045 11.326 0.0479973 10.231L0.0399973 10.193C-0.076082 9.48367 0.0500245 8.75592 0.397997 8.127L0.389997 8.144C0.925227 6.97939 1.70569 5.94412 2.678 5.109L2.69 5.099C3.73048 4.11712 4.89424 3.27472 6.152 2.593L6.239 2.55C7.46026 1.85384 8.74178 1.26914 10.068 0.803003L10.238 0.751003C11.6162 0.256193 13.0696 0.00346863 14.534 0.0040031H14.536C15.8139 -0.0361942 17.0824 0.236371 18.231 0.798003L18.185 0.777003C19.085 1.187 19.759 1.959 20.029 2.903L20.035 2.927C20.269 3.87834 20.1861 4.88005 19.799 5.78L19.81 5.751C19.4029 6.74942 18.7907 7.65122 18.013 8.398L18.01 8.401C17.2335 9.17181 16.3089 9.77733 15.292 10.181L15.237 10.2C14.0861 10.6864 12.8557 10.9572 11.607 10.999L11.588 11C10.8011 11.0852 10.0052 11.0138 9.246 10.79L9.289 10.801C8.82686 10.656 8.39985 10.4166 8.035 10.098L8.039 10.101C7.79237 9.90005 7.5901 9.65012 7.445 9.367L7.439 9.354C7.339 9.08734 7.33066 8.929 7.414 8.879C7.49733 8.829 7.55567 8.82067 7.589 8.854L7.839 9.104C8.118 9.363 8.451 9.567 8.819 9.697L8.839 9.703C9.345 9.879 9.929 9.981 10.536 9.981C10.7313 9.981 10.9233 9.97067 11.112 9.95L11.089 9.952C12.6377 9.7749 14.123 9.23606 15.425 8.379L15.388 8.402C16.4337 7.78407 17.3048 6.90991 17.919 5.862L17.937 5.828C18.238 5.386 18.418 4.84 18.418 4.252C18.418 3.891 18.35 3.545 18.226 3.227L18.233 3.246C18.0478 2.95015 17.8018 2.69709 17.5113 2.50364C17.2207 2.31019 16.8924 2.18078 16.548 2.124L16.534 2.122C15.4349 1.86359 14.2936 1.84076 13.185 2.055L13.235 2.047C11.6378 2.32823 10.0919 2.84768 8.649 3.588L8.74 3.545C4.64133 5.61167 2.525 7.728 2.391 9.894V9.943C2.391 10.816 2.734 11.609 3.293 12.195L3.292 12.194C3.92239 12.896 4.63023 13.5243 5.402 14.067L5.441 14.093C6.1135 14.5951 6.7479 15.1462 7.339 15.742L7.34 15.744L7.44 15.844L10.64 14.095C10.9952 13.5777 11.4378 13.1263 11.948 12.761L11.964 12.75C12.364 12.414 12.872 12.195 13.429 12.151L13.438 12.15C13.458 12.1487 13.4803 12.148 13.505 12.148C13.878 12.148 14.198 12.373 14.336 12.695L14.338 12.701C14.4845 13.0338 14.5361 13.4007 14.487 13.761L14.488 13.751L14.391 14.244L14.541 14.144C14.6296 14.0764 14.7348 14.034 14.8455 14.0211C14.9562 14.0083 15.0683 14.0255 15.17 14.071L15.166 14.069C15.2778 14.0976 15.3739 14.169 15.4335 14.2677C15.4932 14.3665 15.5117 14.4847 15.485 14.597L15.486 14.594L15.336 15.144C15.036 16.3433 14.8363 17.2097 14.737 17.743C14.6726 17.9721 14.6475 18.2105 14.663 18.448V18.442C14.6797 18.642 14.7047 18.742 14.738 18.742C14.7713 18.742 14.8377 18.642 14.937 18.442L15.087 18.092C15.1203 18.092 15.1203 18.1087 15.087 18.142L15.637 16.992C16.937 14.1267 17.6367 12.5267 17.736 12.192L18.036 11.243C18.0693 11.1763 18.2027 11.11 18.436 11.044C18.715 10.9696 19.0033 10.936 19.292 10.944H19.289C19.7557 10.944 19.989 11.0607 19.989 11.294L19.939 11.544C19.8133 11.8995 19.7101 12.2626 19.63 12.631L19.619 12.694C19.5698 13.0327 19.5789 13.3774 19.646 13.713L19.643 13.694L19.693 13.893C19.795 14.31 19.95 14.676 20.153 15.01L20.143 14.993C20.5423 14.327 20.9257 13.644 21.293 12.944C21.583 12.461 21.853 11.901 22.07 11.315L22.093 11.245C22.168 10.868 22.254 10.55 22.359 10.24L22.343 10.296C22.3763 10.196 22.5187 10.121 22.77 10.071C23.008 10.023 23.281 9.996 23.56 9.996H23.596H23.594C24.0607 9.996 24.3097 10.1127 24.341 10.346L24.241 10.545C24.122 10.881 24.018 11.285 23.948 11.7L23.942 11.745C23.9112 12.0865 23.9294 12.4306 23.996 12.767L23.992 12.744V12.943C24.107 13.379 24.278 13.762 24.502 14.109L24.492 14.093L24.642 14.443C25.5318 14.012 26.5083 13.7897 27.497 13.793H27.536H27.534L27.533 13.796ZM6.094 21.049C6.81629 20.3048 7.21958 19.3081 7.218 18.271C7.21842 17.8651 7.15705 17.4615 7.036 17.074L7.044 17.102L6.244 17.602C5.428 18.067 4.722 18.586 4.083 19.176L4.091 19.169C3.59885 19.6186 3.24533 20.1994 3.072 20.843L3.066 20.868C2.916 21.4847 2.991 21.8847 3.291 22.068C3.474 22.152 3.689 22.201 3.914 22.201C4.16 22.201 4.393 22.143 4.598 22.039L4.589 22.043C5.16177 21.8371 5.67564 21.4945 6.086 21.045L6.089 21.042L6.094 21.049ZM12.791 16.445C12.9577 16.0117 13.141 15.495 13.341 14.895C13.6077 14.095 13.6993 13.6287 13.616 13.496C13.5327 13.3633 13.3743 13.3467 13.141 13.446C12.8716 13.5753 12.6337 13.762 12.444 13.993L12.441 13.997C12.2257 14.2708 12.0312 14.5603 11.859 14.863L11.841 14.897C11.6292 15.2461 11.4638 15.6212 11.349 16.013L11.34 16.047C11.1064 16.6905 11.0047 17.3744 11.041 18.058V18.046C11.0743 18.712 11.181 19.0703 11.361 19.121C11.541 19.1717 11.7493 18.93 11.986 18.396C12.215 17.983 12.419 17.503 12.571 17L12.585 16.946C12.6843 16.71 12.7523 16.543 12.789 16.445H12.791ZM18.337 19.095C18.6817 18.9428 18.9793 18.701 19.1989 18.3948C19.4186 18.0887 19.5522 17.7293 19.586 17.354L19.587 17.346V17.296L19.037 17.996L18.038 19.096C18.0301 19.1017 18.0237 19.1092 18.0193 19.1179C18.015 19.1266 18.0128 19.1363 18.013 19.146C18.0143 19.1667 18.0223 19.1833 18.037 19.196C18.069 19.2287 18.169 19.1953 18.337 19.096V19.095ZM22.636 18.145C23.0097 18.0404 23.3389 17.8165 23.5736 17.5074C23.8083 17.1983 23.9356 16.8211 23.936 16.433V16.394V16.396C23.9253 16.196 23.8903 16.0073 23.831 15.83L23.835 15.845C23.446 16.191 23.127 16.605 22.896 17.072L22.885 17.095C22.5843 17.6943 22.5003 18.0437 22.633 18.143L22.636 18.145Z" fill="#397272"/>
</g>
<defs>
<clipPath id="clip0_11_77">
<rect width="32" height="24" fill="white"/>
</clipPath>
</defs>
</svg>
