<svg width="22" height="22" viewBox="0 0 22 22" fill="none" xmlns="http://www.w3.org/2000/svg">
<g clip-path="url(#clip0_11_92)">
<path d="M11 0.458313C9.5705 0.458313 8.15501 0.739873 6.83433 1.28692C5.51365 1.83396 4.31365 2.63577 3.30284 3.64658C1.26143 5.68799 0.114578 8.45674 0.114578 11.3437C0.114578 16.1551 3.23869 20.2371 7.5602 21.6849C8.10447 21.772 8.27864 21.4345 8.27864 21.1406V19.301C5.26338 19.9541 4.62114 17.8423 4.62114 17.8423C4.12041 16.5796 3.41286 16.2422 3.41286 16.2422C2.42229 15.5673 3.48906 15.589 3.48906 15.589C4.5776 15.6652 5.15453 16.7102 5.15453 16.7102C6.10156 18.3648 7.70171 17.875 8.32218 17.6137C8.42015 16.9062 8.70317 16.4272 9.00796 16.1551C6.5914 15.8829 4.0551 14.9468 4.0551 10.7995C4.0551 9.59118 4.46874 8.62238 5.1763 7.84951C5.06744 7.57738 4.68645 6.44529 5.28515 4.97576C5.28515 4.97576 6.19953 4.68185 8.27864 6.08607C9.13859 5.84659 10.0747 5.72685 11 5.72685C11.9253 5.72685 12.8614 5.84659 13.7213 6.08607C15.8005 4.68185 16.7148 4.97576 16.7148 4.97576C17.3135 6.44529 16.9325 7.57738 16.8237 7.84951C17.5312 8.62238 17.9449 9.59118 17.9449 10.7995C17.9449 14.9577 15.3977 15.8721 12.9703 16.1442C13.3621 16.4816 13.7213 17.1457 13.7213 18.158V21.1406C13.7213 21.4345 13.8955 21.7828 14.4507 21.6849C18.7722 20.2262 21.8854 16.1551 21.8854 11.3437C21.8854 9.91424 21.6039 8.49874 21.0568 7.17806C20.5098 5.85738 19.708 4.65738 18.6971 3.64658C17.6863 2.63577 16.4863 1.83396 15.1657 1.28692C13.845 0.739873 12.4295 0.458313 11 0.458313Z" fill="#397272"/>
</g>
<defs>
<clipPath id="clip0_11_92">
<rect width="22" height="22" fill="white"/>
</clipPath>
</defs>
</svg>
