<svg width="33" height="22" viewBox="0 0 33 22" fill="none" xmlns="http://www.w3.org/2000/svg">
<g clip-path="url(#clip0_11_94)">
<path fill-rule="evenodd" clip-rule="evenodd" d="M9.54529 15.3804C9.6232 15.3804 9.69562 15.3941 9.76254 15.4216C9.72926 15.4404 9.70082 15.4667 9.67946 15.4984C9.6581 15.5301 9.64441 15.5663 9.63947 15.6042C9.63454 15.6421 9.63849 15.6806 9.65102 15.7167C9.66355 15.7528 9.68431 15.7854 9.71166 15.8121C9.73901 15.8388 9.7722 15.8588 9.80859 15.8704C9.84499 15.882 9.88359 15.885 9.92135 15.8792C9.95911 15.8733 9.99498 15.8587 10.0261 15.8366C10.0573 15.8144 10.0828 15.7854 10.1008 15.7516C10.1504 15.871 10.1602 16.0032 10.1289 16.1286C10.0976 16.254 10.0267 16.366 9.92686 16.448C9.82698 16.5301 9.70335 16.5778 9.57425 16.5842C9.44515 16.5905 9.31743 16.5552 9.20996 16.4834C9.10249 16.4115 9.02098 16.307 8.97748 16.1853C8.93398 16.0636 8.93079 15.9311 8.96839 15.8075C9.00599 15.6838 9.08238 15.5755 9.18626 15.4986C9.29015 15.4217 9.41603 15.3802 9.54529 15.3804ZM9.54529 17.0098C9.40696 17.0146 9.26908 16.9916 9.13986 16.9419C9.01065 16.8923 8.89277 16.8172 8.79326 16.721C8.69375 16.6248 8.61464 16.5095 8.56068 16.382C8.50672 16.2546 8.479 16.1176 8.47919 15.9791C8.47937 15.8407 8.50746 15.7038 8.56176 15.5765C8.61606 15.4492 8.69547 15.3341 8.79524 15.2382C8.89501 15.1422 9.01309 15.0674 9.14244 15.0181C9.27178 14.9688 9.40973 14.9461 9.54804 14.9514C9.81448 14.9615 10.0666 15.0745 10.2514 15.2667C10.4362 15.4589 10.5393 15.7153 10.5389 15.9819C10.5386 16.2485 10.4348 16.5046 10.2495 16.6963C10.0642 16.888 9.81175 17.0004 9.54529 17.0098ZM28.0308 10.2709C25.1103 18.0094 18.5158 21.4565 10.7388 21.4565C7.06479 21.4565 4.13466 20.1915 2.25916 18.085L2.27291 18.0768C2.81329 18.1043 3.29729 18.1125 3.78679 18.1125C4.23641 18.1125 4.67504 18.1084 5.08066 18.085L5.19616 18.0768C5.19616 18.0768 5.32129 18.0685 5.25941 18.0671C6.13261 18.0227 6.9982 17.8816 7.84029 17.6464C7.97687 17.6079 8.10795 17.5666 8.23354 17.5226C8.29533 17.495 8.34454 17.4452 8.37146 17.3831C8.39838 17.321 8.40106 17.251 8.37898 17.187C8.3569 17.123 8.31166 17.0696 8.25216 17.0373C8.19267 17.005 8.12323 16.9962 8.05754 17.0125C7.10879 17.3411 5.85754 17.5213 4.32441 17.5556C3.47142 17.5711 2.61816 17.5504 1.76691 17.4938C1.5747 17.2384 1.39748 16.9721 1.23616 16.6963L0.979037 16.2288C0.206287 14.708 -0.131963 12.9329 0.0467867 11.0024H22.5459C24.3939 11.0024 26.1979 10.3121 27.0559 9.55176C25.52 8.30326 25.6727 5.33876 26.6503 4.20851C27.5 4.89051 28.8682 6.32601 28.633 8.15613C29.7014 7.61988 31.5577 7.35451 33 8.18638C32.0939 9.95463 30.1029 10.4826 28.0308 10.2709ZM3.10204 10.4565H6.14354V7.41363H3.10066L3.10204 10.4565ZM6.61104 10.4565H9.65391V7.41363H6.61104V10.4565ZM6.61104 6.94613H9.65391V3.90326H6.61104V6.94613ZM10.1214 10.4565H13.1643V7.41363H10.1214V10.4565ZM10.1214 6.94613H13.1643V3.90326H10.1214V6.94613ZM13.6318 10.4565H16.6747V7.41363H13.6318V10.4565ZM13.6318 6.94613H16.6747V3.90326H13.6318V6.94613ZM13.6318 3.43576H16.6747V0.392883H13.6318V3.43576ZM17.1422 10.4565H20.185V7.41363H17.1422V10.4565Z" fill="#397272"/>
</g>
<defs>
<clipPath id="clip0_11_94">
<rect width="33" height="22" fill="white"/>
</clipPath>
</defs>
</svg>
