<svg width="22" height="12" viewBox="0 0 22 12" fill="none" xmlns="http://www.w3.org/2000/svg">
<g clip-path="url(#clip0_11_81)">
<path d="M3.1579 11.8421C2.36842 11.8421 1.69769 11.5661 1.14569 11.0141C0.593691 10.4621 0.317059 9.79074 0.315796 9.00001V8.52632C0.315796 8.1158 0.450322 7.77664 0.719374 7.50885C0.988426 7.24106 1.32758 7.10654 1.73685 7.10527C2.14611 7.10401 2.4859 7.23854 2.75621 7.50885C3.02653 7.77917 3.16042 8.11832 3.1579 8.52632V9.00001H6V1.89475C6 1.48423 6.13452 1.14507 6.40358 0.877282C6.67263 0.609493 7.01179 0.474966 7.42105 0.473703C7.83031 0.47244 8.1701 0.606966 8.44042 0.877282C8.71073 1.1476 8.84463 1.48675 8.8421 1.89475V9.00001C8.8421 9.78948 8.5661 10.4608 8.0141 11.0141C7.4621 11.5674 6.79073 11.8434 6 11.8421H3.1579ZM13.5789 11.8421C13.0421 11.8421 12.5924 11.6602 12.2299 11.2964C11.8674 10.9326 11.6855 10.483 11.6842 9.94737V9.00001C11.6842 8.74738 11.7789 8.52632 11.9684 8.33685C12.1579 8.14738 12.3789 8.05264 12.6316 8.05264H13.5789C13.8316 8.05264 14.0526 8.14738 14.2421 8.33685C14.4316 8.52632 14.5263 8.74738 14.5263 9.00001H18.3158V7.10527H13.5789C13.0421 7.10527 12.5924 6.92338 12.2299 6.55959C11.8674 6.1958 11.6855 5.74612 11.6842 5.21054V2.36844C11.6842 1.8316 11.8661 1.38191 12.2299 1.01939C12.5937 0.656861 13.0434 0.474966 13.5789 0.473703H19.2631C19.8 0.473703 20.2503 0.655597 20.6141 1.01939C20.9779 1.38318 21.1591 1.83286 21.1579 2.36844V3.3158C21.1579 3.56844 21.0631 3.78949 20.8737 3.97896C20.6842 4.16844 20.4631 4.26317 20.2105 4.26317H19.2631C19.0105 4.26317 18.7895 4.16844 18.6 3.97896C18.4105 3.78949 18.3158 3.56844 18.3158 3.3158H14.5263V5.21054H19.2631C19.8 5.21054 20.2503 5.39243 20.6141 5.75622C20.9779 6.12001 21.1591 6.56969 21.1579 7.10527V9.94737C21.1579 10.4842 20.976 10.9345 20.6122 11.2983C20.2484 11.6621 19.7987 11.8434 19.2631 11.8421H13.5789Z" fill="#397272"/>
</g>
<defs>
<clipPath id="clip0_11_81">
<rect width="21.4737" height="12" fill="white"/>
</clipPath>
</defs>
</svg>
