<svg width="24" height="18" viewBox="0 0 24 18" fill="none" xmlns="http://www.w3.org/2000/svg">
<g clip-path="url(#clip0_73_2948)">
<path d="M20.6498 10.347L20.7488 10.3455C21.3743 10.3455 21.966 10.491 22.491 10.7505L22.4678 10.74C22.935 10.9653 23.3339 11.3109 23.6235 11.7412L23.6303 11.7517C23.8825 12.122 24.0072 12.5643 23.9858 13.0117V13.0072C23.9753 13.214 23.9236 13.4166 23.8337 13.6031C23.7438 13.7896 23.6175 13.9563 23.4623 14.0932L23.4608 14.0947C23.2931 14.2589 23.0924 14.3855 22.872 14.466L22.8608 14.4697C22.7358 14.4947 22.667 14.476 22.6545 14.4135C22.642 14.351 22.6983 14.2822 22.8233 14.2072C23.1623 14.0017 23.4075 13.6702 23.4968 13.2795L23.499 13.2697C23.5191 13.0092 23.4672 12.7482 23.349 12.5152L23.3528 12.5235C23.1953 12.1919 22.9518 11.9086 22.6478 11.703L22.6403 11.6985C22.1703 11.3984 21.6338 11.2184 21.078 11.1742L21.066 11.1735C20.2701 11.0594 19.4581 11.1538 18.7095 11.4472L18.741 11.436C18.8498 11.6902 18.918 11.985 18.9278 12.294V12.2977C18.9221 12.5987 18.8404 12.8934 18.6903 13.1544C18.5401 13.4153 18.3264 13.6341 18.069 13.7902L18.0608 13.7947C17.8283 13.9597 17.5628 14.1045 17.28 14.217L17.2538 14.226C17.0485 14.3243 16.8218 14.3692 16.5945 14.3565H16.5983C16.1238 14.257 16.0113 13.8445 16.2608 13.119C16.3695 12.8032 16.5218 12.5295 16.7145 12.2887L16.71 12.294C16.9568 11.9715 17.2275 11.6887 17.5268 11.4382L17.535 11.4315L17.4615 11.322C17.3159 11.0702 17.1939 10.8056 17.097 10.5315L17.0865 10.497C17.0115 10.247 16.949 10.0097 16.899 9.78522L16.8615 9.52272L16.4865 10.2345C16.1615 10.8345 15.849 11.3592 15.549 11.8087L15.4365 11.9962C15.5625 12.3022 15.6555 12.657 15.6975 13.0275L15.699 13.0462C15.7198 13.3354 15.6657 13.6251 15.5419 13.8873C15.4182 14.1495 15.229 14.3754 14.9925 14.5432L14.9873 14.547C14.7599 14.6858 14.5245 14.811 14.2823 14.922L14.2373 14.9407C13.9539 15.0613 13.6516 15.1311 13.344 15.147H13.3373C13.1282 15.1622 12.9187 15.1224 12.7298 15.0315L12.7373 15.0345C12.6632 14.9712 12.6121 14.8852 12.5919 14.7898C12.5717 14.6945 12.5835 14.5951 12.6255 14.5072L12.624 14.5102C12.924 14.0895 13.2195 13.7235 13.5338 13.374L13.524 13.3852L14.349 12.336L14.1998 11.9985C14.0702 11.7577 13.9608 11.5066 13.8728 11.2477L13.8623 11.2117C13.7873 10.9617 13.7248 10.7245 13.6748 10.5L13.6373 10.2375L13.2623 11.1375C12.9628 11.837 12.6878 12.4367 12.4373 12.9367C12.0638 13.6867 11.7513 14.2617 11.4998 14.6617L11.4248 14.7742C11.1253 15.2487 10.8378 15.486 10.5623 15.486C10.2868 15.486 10.1 15.311 10.002 14.961C9.92543 14.6807 9.88709 14.3913 9.88801 14.1007L9.88876 14.0197V14.0235L9.96376 13.4985V13.536C9.76376 14.0105 9.56376 14.4477 9.36376 14.8477C9.24204 15.0886 9.10082 15.3191 8.94151 15.537L8.95126 15.5227C8.79676 15.6847 8.57926 15.7852 8.33851 15.7852H8.33251C8.31651 15.7862 8.29926 15.7867 8.28076 15.7867C8.09868 15.7867 7.92309 15.7191 7.78801 15.597L7.78876 15.5977C7.52342 15.3241 7.33194 14.9876 7.23226 14.6197L7.22851 14.604C7.08204 14.1855 7.01761 13.7426 7.03876 13.2997V13.3072C7.09801 12.7102 7.21726 12.1635 7.39201 11.6422L7.37626 11.6955L6.02701 12.483V12.5205C6.27248 13.0378 6.37577 13.6112 6.32626 14.1817L6.32701 14.1697C6.28988 14.9112 6.05331 15.629 5.64226 16.2472L5.65201 16.2322C5.23988 16.8906 4.63345 17.4048 3.91651 17.7037L3.89176 17.7127C3.46052 17.9027 2.99426 18.0003 2.52301 17.9992C2.20951 17.9992 1.90501 17.9572 1.61701 17.8777L1.64101 17.883C1.40845 17.8054 1.21098 17.6478 1.08376 17.4382L1.08151 17.4337C0.899095 17.1688 0.794403 16.8581 0.779263 16.5367V16.5322C0.732383 16.0771 0.812604 15.6178 1.01101 15.2055L1.00426 15.2205C1.42408 14.4988 2.02218 13.8971 2.74126 13.473L2.76376 13.461C3.30024 13.0921 3.86356 12.764 4.44901 12.4792L4.52851 12.444L4.71601 12.3315C4.49101 12.1565 4.07851 11.8565 3.47851 11.4315C2.72206 10.9271 2.0018 10.3705 1.32301 9.76572L1.34176 9.78222C0.698564 9.23145 0.242299 8.4945 0.0360132 7.67322L0.0300132 7.64472C-0.0570462 7.11272 0.0375336 6.56691 0.298513 6.09522L0.292513 6.10797C0.693935 5.23451 1.27928 4.45806 2.00851 3.83172L2.01751 3.82422C2.79787 3.08781 3.67069 2.45601 4.61401 1.94472L4.67926 1.91247C5.59521 1.39035 6.55635 0.951825 7.55101 0.602222L7.67851 0.563222C8.71218 0.192114 9.80225 0.00257096 10.9005 0.00297181H10.902C11.8605 -0.0271762 12.8118 0.177248 13.6733 0.598472L13.6388 0.582722C14.3138 0.890222 14.8193 1.46922 15.0218 2.17722L15.0263 2.19522C15.2018 2.90872 15.1396 3.66 14.8493 4.33497L14.8575 4.31322C14.5522 5.06203 14.0931 5.73838 13.5098 6.29847L13.5075 6.30072C12.9252 6.87883 12.2317 7.33296 11.469 7.63572L11.4278 7.64997C10.5646 8.01478 9.64181 8.2179 8.70526 8.24922L8.69101 8.24997C8.10086 8.31384 7.5039 8.26031 6.93451 8.09247L6.96676 8.10072C6.62016 7.99194 6.2999 7.81241 6.02626 7.57347L6.02926 7.57572C5.84429 7.42501 5.69259 7.23756 5.58376 7.02522L5.57926 7.01547C5.50426 6.81547 5.49801 6.69672 5.56051 6.65922C5.62301 6.62172 5.66676 6.61547 5.69176 6.64047L5.87926 6.82797C6.08851 7.02222 6.33826 7.17522 6.61426 7.27272L6.62926 7.27722C7.00876 7.40922 7.44676 7.48572 7.90201 7.48572C8.04851 7.48572 8.19251 7.47797 8.33401 7.46247L8.31676 7.46397C9.47827 7.33115 10.5923 6.92702 11.5688 6.28422L11.541 6.30147C12.3253 5.83802 12.9786 5.1824 13.4393 4.39647L13.4528 4.37097C13.6785 4.03947 13.8135 3.62997 13.8135 3.18897C13.8135 2.91822 13.7625 2.65872 13.6695 2.42022L13.6748 2.43447C13.5359 2.21258 13.3514 2.02279 13.1335 1.8777C12.9156 1.73262 12.6693 1.63556 12.411 1.59297L12.4005 1.59147C11.5762 1.39766 10.7202 1.38054 9.88876 1.54122L9.92626 1.53522C8.72838 1.74614 7.56895 2.13573 6.48676 2.69097L6.55501 2.65872C3.48101 4.20872 1.89376 5.79597 1.79326 7.42047V7.45722C1.79326 8.11197 2.05051 8.70672 2.46976 9.14622L2.46901 9.14547C2.94181 9.67194 3.47269 10.1432 4.05151 10.5502L4.08076 10.5697C4.58514 10.9463 5.06094 11.3596 5.50426 11.8065L5.50501 11.808L5.58001 11.883L7.98001 10.5712C8.2464 10.1833 8.57837 9.84469 8.96101 9.57072L8.97301 9.56247C9.27301 9.31047 9.65401 9.14622 10.0718 9.11322L10.0785 9.11247C10.0935 9.11147 10.1103 9.11097 10.1288 9.11097C10.4085 9.11097 10.6485 9.27972 10.752 9.52122L10.7535 9.52572C10.8634 9.77533 10.9021 10.0505 10.8653 10.3207L10.866 10.3132L10.7933 10.683L10.9058 10.608C10.9722 10.5573 11.0511 10.5255 11.1341 10.5158C11.2171 10.5062 11.3012 10.5191 11.3775 10.5532L11.3745 10.5517C11.4584 10.5732 11.5304 10.6267 11.5752 10.7008C11.6199 10.7748 11.6338 10.8635 11.6138 10.9477L11.6145 10.9455L11.502 11.358C11.277 12.2575 11.1273 12.9072 11.0528 13.3072C11.0044 13.4791 10.9857 13.6579 10.9973 13.836V13.8315C11.0098 13.9815 11.0285 14.0565 11.0535 14.0565C11.0785 14.0565 11.1283 13.9815 11.2028 13.8315L11.3153 13.569C11.3403 13.569 11.3403 13.5815 11.3153 13.6065L11.7278 12.744C12.7028 10.595 13.2275 9.39497 13.302 9.14397L13.527 8.43222C13.552 8.38222 13.652 8.33247 13.827 8.28297C14.0363 8.2272 14.2525 8.20194 14.469 8.20797H14.4668C14.8168 8.20797 14.9918 8.29547 14.9918 8.47047L14.9543 8.65797C14.86 8.9246 14.7826 9.19688 14.7225 9.47322L14.7143 9.52047C14.6774 9.77451 14.6842 10.033 14.7345 10.2847L14.7323 10.2705L14.7698 10.4197C14.8463 10.7325 14.9625 11.007 15.1148 11.2575L15.1073 11.2447C15.4068 10.7452 15.6943 10.233 15.9698 9.70797C16.1873 9.34572 16.3898 8.92572 16.5525 8.48622L16.5698 8.43372C16.626 8.15097 16.6905 7.91247 16.7693 7.67997L16.7573 7.72197C16.7823 7.64697 16.889 7.59072 17.0775 7.55322C17.256 7.51722 17.4608 7.49697 17.67 7.49697H17.697H17.6955C18.0455 7.49697 18.2323 7.58447 18.2558 7.75947L18.1808 7.90872C18.0915 8.16072 18.0135 8.46372 17.961 8.77497L17.9565 8.80872C17.9334 9.06485 17.9471 9.32295 17.997 9.57522L17.994 9.55797V9.70722C18.0803 10.0342 18.2085 10.3215 18.3765 10.5817L18.369 10.5697L18.4815 10.8322C19.1489 10.509 19.8812 10.3423 20.6228 10.3447H20.652H20.6505L20.6498 10.347ZM4.57051 15.7867C5.11223 15.2286 5.4147 14.481 5.41351 13.7032C5.41383 13.3988 5.3678 13.0961 5.27701 12.8055L5.28301 12.8265L4.68301 13.2015C4.07101 13.5502 3.54151 13.9395 3.06226 14.382L3.06826 14.3767C2.69916 14.7139 2.43401 15.1495 2.30401 15.6322L2.29951 15.651C2.18701 16.1135 2.24326 16.4135 2.46826 16.551C2.60551 16.614 2.76676 16.6507 2.93551 16.6507C3.12001 16.6507 3.29476 16.6072 3.44851 16.5292L3.44176 16.5322C3.87134 16.3778 4.25675 16.1209 4.56451 15.7837L4.56676 15.7815L4.57051 15.7867ZM9.59326 12.3337C9.71826 12.0087 9.85576 11.6212 10.0058 11.1712C10.2058 10.5712 10.2745 10.2215 10.212 10.122C10.1495 10.0225 10.0308 10.01 9.85576 10.0845C9.65369 10.1815 9.47528 10.3215 9.33301 10.4947L9.33076 10.4977C9.16931 10.7031 9.0234 10.9202 8.89426 11.1472L8.88076 11.1727C8.72193 11.4345 8.59789 11.7159 8.51176 12.0097L8.50501 12.0352C8.3298 12.5178 8.25353 13.0308 8.28076 13.5435V13.5345C8.30576 14.034 8.38576 14.3027 8.52076 14.3407C8.65576 14.3787 8.81201 14.1975 8.98951 13.797C9.16126 13.4872 9.31426 13.1272 9.42826 12.75L9.43876 12.7095C9.51326 12.5325 9.56426 12.4072 9.59176 12.3337H9.59326ZM13.7528 14.3212C14.0113 14.207 14.2345 14.0257 14.3992 13.7961C14.5639 13.5665 14.6642 13.2969 14.6895 13.0155L14.6903 13.0095V12.972L14.2778 13.497L13.5285 14.322C13.5226 14.3262 13.5178 14.3319 13.5145 14.3384C13.5112 14.3449 13.5096 14.3522 13.5098 14.3595C13.5108 14.375 13.5168 14.3875 13.5278 14.397C13.5518 14.4215 13.6268 14.3965 13.7528 14.322V14.3212ZM16.977 13.6087C17.2573 13.5302 17.5042 13.3623 17.6802 13.1305C17.8562 12.8987 17.9517 12.6158 17.952 12.3247V12.2955V12.297C17.944 12.147 17.9178 12.0055 17.8733 11.8725L17.8763 11.8837C17.5845 12.1432 17.3453 12.4537 17.172 12.804L17.1638 12.8212C16.9383 13.2707 16.8753 13.5327 16.9748 13.6072L16.977 13.6087Z" fill="#397272"/>
</g>
<defs>
<clipPath id="clip0_73_2948">
<rect width="24" height="18" fill="white"/>
</clipPath>
</defs>
</svg>
