<svg width="22" height="31" viewBox="0 0 22 31" fill="none" xmlns="http://www.w3.org/2000/svg">
<path opacity="0.6" d="M10.6209 0.265015H5.54151C4.19458 0.265015 2.90282 0.80008 1.95039 1.7525C0.997972 2.70493 0.462906 3.99669 0.462906 5.34362C0.462906 6.69054 0.997972 7.98231 1.95039 8.93473C2.90282 9.88715 4.19458 10.4222 5.54151 10.4222H10.6209V0.265015Z" fill="#397272"/>
<path opacity="0.45" d="M10.6209 10.4221H5.54151C4.19478 10.4221 2.90321 10.9571 1.95093 11.9094C0.998654 12.8617 0.463669 14.1532 0.463669 15.5C0.463669 16.8467 0.998654 18.1383 1.95093 19.0905C2.90321 20.0428 4.19478 20.5778 5.54151 20.5778H10.6209V10.4221Z" fill="#397272"/>
<path d="M20.7766 15.5C20.7766 16.8469 20.2415 18.1387 19.2891 19.0911C18.3366 20.0435 17.0449 20.5786 15.698 20.5786C14.351 20.5786 13.0593 20.0435 12.1068 19.0911C11.1544 18.1387 10.6194 16.8469 10.6194 15.5C10.6194 14.1531 11.1544 12.8613 12.1068 11.9089C13.0593 10.9565 14.351 10.4214 15.698 10.4214C17.0449 10.4214 18.3366 10.9565 19.2891 11.9089C20.2415 12.8613 20.7766 14.1531 20.7766 15.5Z" fill="#397272"/>
<path opacity="0.3" d="M5.54151 20.5794H10.6209V25.6572C10.6206 26.6614 10.3225 27.643 9.76447 28.4778C9.2064 29.3126 8.41333 29.9632 7.48554 30.3473C6.55775 30.7315 5.53689 30.8319 4.55203 30.6359C3.56716 30.4399 2.66252 29.9564 1.95246 29.2463C1.2424 28.5362 0.758819 27.6316 0.562841 26.6467C0.366862 25.6619 0.467292 24.641 0.851433 23.7132C1.23557 22.7854 1.88618 21.9924 2.72099 21.4343C3.5558 20.8762 4.53734 20.5797 5.54151 20.5794Z" fill="#397272"/>
<path opacity="0.8" d="M10.6194 0.265015H15.6972C17.0441 0.265015 18.3359 0.80008 19.2883 1.7525C20.2407 2.70493 20.7758 3.99669 20.7758 5.34362C20.7758 6.69054 20.2407 7.98231 19.2883 8.93473C18.3359 9.88715 17.0441 10.4222 15.6972 10.4222H10.6194V0.265015Z" fill="#397272"/>
</svg>
